<svg width="113" height="28" viewBox="0 0 113 28" fill="none" xmlns="http://www.w3.org/2000/svg">
<path d="M92.2321 18.885V6.89844H97.1075V27.5853H92.3802V23.9086H92.1647C91.6978 25.0668 90.9302 26.0141 89.8617 26.7503C88.8022 27.4866 87.4958 27.8547 85.9425 27.8547C84.5867 27.8547 83.3881 27.5539 82.3465 26.9523C81.314 26.3418 80.5059 25.4574 79.9223 24.2991C79.3387 23.1319 79.0469 21.7222 79.0469 20.0702V6.89844H83.9223V19.316C83.9223 20.6268 84.2815 21.6684 84.9997 22.4405C85.718 23.2127 86.6608 23.5988 87.828 23.5988C88.5463 23.5988 89.2422 23.4237 89.9156 23.0735C90.589 22.7234 91.1412 22.2026 91.5721 21.5112C92.0121 20.8109 92.2321 19.9355 92.2321 18.885Z" fill="#111623"/>
<path d="M66.6335 27.9988C65.3226 27.9988 64.1419 27.7653 63.0914 27.2984C62.0499 26.8225 61.2238 26.1222 60.6133 25.1974C60.0117 24.2726 59.7109 23.1323 59.7109 21.7765C59.7109 20.6093 59.9264 19.6441 60.3574 18.8809C60.7884 18.1177 61.3765 17.5072 62.1217 17.0493C62.8669 16.5913 63.7065 16.2457 64.6402 16.0122C65.583 15.7698 66.5572 15.5947 67.5628 15.487C68.7749 15.3613 69.7581 15.249 70.5123 15.1503C71.2665 15.0425 71.8142 14.8809 72.1554 14.6654C72.5056 14.4409 72.6807 14.0953 72.6807 13.6284V13.5476C72.6807 12.533 72.3799 11.7473 71.7783 11.1907C71.1767 10.634 70.3103 10.3556 69.179 10.3556C67.9848 10.3556 67.0375 10.616 66.3372 11.1368C65.6459 11.6576 65.179 12.2726 64.9365 12.9819L60.3843 12.3354C60.7435 11.0784 61.3361 10.0279 62.1621 9.18392C62.9882 8.33095 63.9983 7.69346 65.1924 7.27147C66.3866 6.84049 67.7065 6.625 69.152 6.625C70.1487 6.625 71.1408 6.74172 72.1285 6.97517C73.1161 7.20861 74.0185 7.5947 74.8355 8.13342C75.6526 8.66316 76.308 9.38594 76.8019 10.3018C77.3047 11.2176 77.5561 12.3624 77.5561 13.7361V27.5812H72.8692V24.7395H72.7076C72.4113 25.3141 71.9938 25.8529 71.4551 26.3557C70.9253 26.8495 70.2564 27.249 69.4483 27.5543C68.6492 27.8506 67.7109 27.9988 66.6335 27.9988ZM67.8995 24.4163C68.8782 24.4163 69.7267 24.2232 70.445 23.8371C71.1633 23.4421 71.7154 22.9213 72.1015 22.2748C72.4966 21.6284 72.6941 20.9236 72.6941 20.1604V17.7227C72.5415 17.8484 72.2811 17.9651 71.913 18.0728C71.5538 18.1806 71.1498 18.2748 70.7008 18.3557C70.2519 18.4365 69.8075 18.5083 69.3675 18.5711C68.9276 18.634 68.546 18.6879 68.2227 18.7328C67.4955 18.8315 66.8445 18.9931 66.2699 19.2176C65.6952 19.4421 65.2418 19.7563 64.9096 20.1604C64.5774 20.5554 64.4113 21.0672 64.4113 21.6957C64.4113 22.5936 64.739 23.2715 65.3944 23.7294C66.0499 24.1873 66.8849 24.4163 67.8995 24.4163Z" fill="#111623"/>
<path d="M45.8598 15.46V27.5812H40.9844V6.89436H45.6443V10.4095H45.8867C46.3626 9.25127 47.1213 8.33095 48.1628 7.64857C49.2133 6.96619 50.5108 6.625 52.0551 6.625C53.4827 6.625 54.7263 6.93028 55.7857 7.54083C56.8542 8.15138 57.6802 9.03578 58.2638 10.194C58.8564 11.3523 59.1483 12.7574 59.1393 14.4095V27.5812H54.2638V15.1637C54.2638 13.781 53.9047 12.6991 53.1864 11.9179C52.4771 11.1368 51.4939 10.7462 50.2369 10.7462C49.3839 10.7462 48.6252 10.9348 47.9608 11.3119C47.3054 11.68 46.7891 12.2142 46.412 12.9146C46.0439 13.6149 45.8598 14.4634 45.8598 15.46Z" fill="#111623"/>
<path d="M30.35 27.9853C28.3298 27.9853 26.5789 27.5408 25.0974 26.652C23.616 25.7631 22.4667 24.5195 21.6496 22.9213C20.8415 21.3231 20.4375 19.4555 20.4375 17.3186C20.4375 15.1817 20.8415 13.3096 21.6496 11.7024C22.4667 10.0953 23.616 8.84722 25.0974 7.95833C26.5789 7.06944 28.3298 6.625 30.35 6.625C32.3702 6.625 34.121 7.06944 35.6025 7.95833C37.084 8.84722 38.2288 10.0953 39.0368 11.7024C39.8539 13.3096 40.2624 15.1817 40.2624 17.3186C40.2624 19.4555 39.8539 21.3231 39.0368 22.9213C38.2288 24.5195 37.084 25.7631 35.6025 26.652C34.121 27.5408 32.3702 27.9853 30.35 27.9853ZM30.3769 24.0796C31.4723 24.0796 32.3881 23.7788 33.1244 23.1772C33.8606 22.5667 34.4083 21.7496 34.7675 20.726C35.1356 19.7025 35.3197 18.5622 35.3197 17.3051C35.3197 16.0391 35.1356 14.8944 34.7675 13.8708C34.4083 12.8382 33.8606 12.0167 33.1244 11.4061C32.3881 10.7956 31.4723 10.4903 30.3769 10.4903C29.2546 10.4903 28.3208 10.7956 27.5756 11.4061C26.8393 12.0167 26.2871 12.8382 25.919 13.8708C25.5598 14.8944 25.3803 16.0391 25.3803 17.3051C25.3803 18.5622 25.5598 19.7025 25.919 20.726C26.2871 21.7496 26.8393 22.5667 27.5756 23.1772C28.3208 23.7788 29.2546 24.0796 30.3769 24.0796Z" fill="#111623"/>
<path d="M8.52526 27.9462C6.90012 27.9462 5.44557 27.5286 4.16162 26.6936C2.87767 25.8586 1.86308 24.6465 1.11785 23.0573C0.372616 21.468 0 19.5376 0 17.266C0 14.9675 0.377105 13.0281 1.13131 11.4478C1.8945 9.8586 2.92256 8.65994 4.21549 7.85186C5.50842 7.0348 6.9495 6.62627 8.53873 6.62627C9.75085 6.62627 10.7475 6.83278 11.5286 7.2458C12.3098 7.64984 12.9293 8.13918 13.3872 8.71381C13.8451 9.27947 14.1998 9.8137 14.4512 10.3165H14.6532V0H19.5421V27.5825H14.7475V24.3233H14.4512C14.1998 24.8261 13.8362 25.3603 13.3603 25.926C12.8844 26.4826 12.2559 26.9585 11.4748 27.3536C10.6936 27.7486 9.71045 27.9462 8.52526 27.9462ZM9.88553 23.9461C10.9181 23.9461 11.798 23.6678 12.5253 23.1111C13.2525 22.5455 13.8047 21.7598 14.1818 20.7542C14.5589 19.7486 14.7475 18.5769 14.7475 17.2391C14.7475 15.9012 14.5589 14.7385 14.1818 13.7509C13.8137 12.7632 13.266 11.9955 12.5387 11.4478C11.8204 10.9001 10.936 10.6263 9.88553 10.6263C8.79911 10.6263 7.89226 10.9091 7.16499 11.4748C6.43772 12.0404 5.89002 12.8216 5.52189 13.8182C5.15376 14.8148 4.9697 15.9551 4.9697 17.2391C4.9697 18.532 5.15376 19.6858 5.52189 20.7004C5.899 21.706 6.45119 22.5006 7.17846 23.0842C7.91471 23.6588 8.81707 23.9461 9.88553 23.9461Z" fill="#111623"/>
<path d="M110.355 27.5859V18.3917H112.522V27.5859H110.355ZM111.445 17.0868C111.101 17.0868 110.806 16.9731 110.559 16.7456C110.311 16.5141 110.188 16.2368 110.188 15.9136C110.188 15.5864 110.311 15.309 110.559 15.0816C110.806 14.8501 111.101 14.7344 111.445 14.7344C111.792 14.7344 112.087 14.8501 112.33 15.0816C112.578 15.309 112.702 15.5864 112.702 15.9136C112.702 16.2368 112.578 16.5141 112.33 16.7456C112.087 16.9731 111.792 17.0868 111.445 17.0868Z" fill="#111623"/>
<path d="M104.67 27.7729C104.088 27.7729 103.563 27.6691 103.096 27.4616C102.633 27.2501 102.266 26.9389 101.995 26.5278C101.727 26.1168 101.594 25.61 101.594 25.0075C101.594 24.4887 101.69 24.0597 101.881 23.7205C102.073 23.3813 102.334 23.11 102.665 22.9064C102.996 22.7029 103.37 22.5493 103.785 22.4455C104.204 22.3378 104.637 22.26 105.083 22.2121C105.622 22.1562 106.059 22.1063 106.394 22.0624C106.73 22.0146 106.973 21.9427 107.125 21.847C107.28 21.7472 107.358 21.5936 107.358 21.386V21.3501C107.358 20.8992 107.224 20.55 106.957 20.3026C106.69 20.0552 106.305 19.9315 105.802 19.9315C105.271 19.9315 104.85 20.0472 104.539 20.2787C104.231 20.5101 104.024 20.7835 103.916 21.0987L101.893 20.8114C102.053 20.2527 102.316 19.7858 102.683 19.4107C103.05 19.0316 103.499 18.7483 104.03 18.5608C104.561 18.3692 105.147 18.2734 105.79 18.2734C106.233 18.2734 106.674 18.3253 107.113 18.4291C107.552 18.5328 107.953 18.7044 108.316 18.9438C108.679 19.1793 108.97 19.5005 109.19 19.9076C109.413 20.3146 109.525 20.8234 109.525 21.4339V27.5873H107.442V26.3243H107.37C107.238 26.5797 107.053 26.8191 106.813 27.0426C106.578 27.2621 106.281 27.4397 105.921 27.5754C105.566 27.707 105.149 27.7729 104.67 27.7729ZM105.233 26.1807C105.668 26.1807 106.045 26.0949 106.364 25.9233C106.684 25.7477 106.929 25.5162 107.101 25.2289C107.276 24.9416 107.364 24.6283 107.364 24.2892V23.2057C107.296 23.2616 107.18 23.3135 107.017 23.3614C106.857 23.4092 106.678 23.4511 106.478 23.4871C106.279 23.523 106.081 23.5549 105.886 23.5828C105.69 23.6108 105.52 23.6347 105.377 23.6547C105.054 23.6986 104.764 23.7704 104.509 23.8701C104.253 23.9699 104.052 24.1096 103.904 24.2892C103.757 24.4647 103.683 24.6922 103.683 24.9715C103.683 25.3706 103.828 25.6719 104.12 25.8754C104.411 26.0789 104.782 26.1807 105.233 26.1807Z" fill="#111623"/>
<path d="M99.817 27.7155C99.4538 27.7155 99.1426 27.5878 98.8832 27.3324C98.6238 27.077 98.4961 26.7658 98.5001 26.3987C98.4961 26.0395 98.6238 25.7322 98.8832 25.4768C99.1426 25.2214 99.4538 25.0938 99.817 25.0938C100.168 25.0938 100.473 25.2214 100.733 25.4768C100.996 25.7322 101.13 26.0395 101.134 26.3987C101.13 26.6421 101.066 26.8635 100.942 27.0631C100.823 27.2626 100.663 27.4222 100.463 27.5419C100.268 27.6577 100.052 27.7155 99.817 27.7155Z" fill="#111623"/>
</svg>
